<?xml version="1.0" encoding="UTF-8"?><svg id="Layer_1" xmlns="http://www.w3.org/2000/svg" viewBox="0 0 261 57"><defs><style>.cls-1{fill:#fff;}.cls-2{fill:#0d3a42;}</style></defs><g><path class="cls-1" d="m100.11,22.8h-5.26v13.34h-2.5v-13.34h-5.24v-2.24h13.01v2.24Z"/><path class="cls-1" d="m111.3,36.14l-4.44-6.02h-2.86v6.02h-2.5v-15.58h5.69c3.16,0,5.29,1.94,5.29,4.77,0,2.05-1.13,3.68-3,4.39l4.67,6.42h-2.86Zm-7.29-8.24h3.14c1.77,0,2.76-1.06,2.76-2.55s-.99-2.57-2.76-2.57h-3.14v5.12Z"/><path class="cls-1" d="m128.08,29.84c0,4.16-2.74,6.56-6.37,6.56s-6.42-2.41-6.42-6.56v-9.28h2.5v9.44c0,2.74,1.72,4.11,3.92,4.11s3.87-1.37,3.87-4.11v-9.44h2.5v9.28Z"/><path class="cls-1" d="m140.62,23.08l-1.75,1.35c-.8-1.2-1.94-1.89-3.28-1.89-1.25,0-2.36.61-2.36,1.89,0,1.18.9,1.61,2.17,2.22l1.75.8c2.36,1.09,3.73,2.29,3.73,4.44,0,2.76-2.24,4.51-5.22,4.51-2.6,0-4.7-1.32-5.88-3.38l1.77-1.35c.9,1.3,2.15,2.48,4.08,2.48,1.6,0,2.69-.83,2.69-2.17,0-1.23-.92-1.7-2.29-2.34l-1.72-.8c-2.01-.92-3.64-2.12-3.64-4.32,0-2.57,2.22-4.23,4.91-4.23,2.29,0,4.08,1.18,5.03,2.79Z"/><path class="cls-1" d="m154.57,22.8h-5.26v13.34h-2.5v-13.34h-5.24v-2.24h13.01v2.24Z"/><path class="cls-1" d="m170.76,20.3v15.84h-2.5v-9.77l-4.46,5.85h-.85l-4.49-5.88v9.8h-2.5v-15.84h.87l6.54,8.71,6.54-8.71h.85Z"/><path class="cls-1" d="m183.09,33.54h-7.01l-1.11,2.6h-2.67l6.87-15.84h.85l6.87,15.84h-2.69l-1.11-2.6Zm-3.49-8.59l-2.62,6.44h5.22l-2.6-6.44Z"/><path class="cls-1" d="m198.22,36.14l-4.44-6.02h-2.86v6.02h-2.5v-15.58h5.69c3.16,0,5.29,1.94,5.29,4.77,0,2.05-1.13,3.68-3,4.39l4.67,6.42h-2.86Zm-7.29-8.24h3.14c1.77,0,2.76-1.06,2.76-2.55s-.99-2.57-2.76-2.57h-3.14v5.12Z"/><path class="cls-1" d="m225.15,38.9v1.98c-.76.14-1.63.26-2.62.26-4.13,0-7.65-1.79-10.08-5.24-.9.33-1.87.5-2.86.5-4.56,0-8.17-3.49-8.17-8.05s3.63-8.05,8.17-8.05,8.19,3.49,8.19,8.05c0,2.71-1.3,5.03-3.28,6.47,2.12,2.81,4.77,4.18,8.43,4.18.61,0,1.42-.05,2.22-.09Zm-15.53-4.79c3.19,0,5.59-2.43,5.59-5.76s-2.38-5.76-5.62-5.76-5.57,2.43-5.57,5.74,2.36,5.78,5.59,5.78Z"/><path class="cls-1" d="m232.47,29.84c0,4.16-2.74,6.56-6.37,6.56s-6.42-2.41-6.42-6.56v-9.28h2.5v9.44c0,2.74,1.72,4.11,3.92,4.11s3.87-1.37,3.87-4.11v-9.44h2.5v9.28Z"/><path class="cls-1" d="m245.53,22.8h-7.74v3.99h5.83v2.17h-5.83v4.93h8.03v2.24h-10.53v-15.58h10.25v2.24Z"/></g><path class="cls-2" d="m33.44,13.01s-.06,0-.09,0c-.16,0-.32.04-.48.05.19-.01.37-.04.56-.04"/><path class="cls-1" d="m28.4,14.82l.06-.07s.05-.04.07-.06c.63-.58,1.36-1.04,2.16-1.36,0,0,.02,0,.03-.01.11-.04.22-.08.34-.11H14.85c-3.69,0-6.7,3.01-6.7,6.7s3.01,6.7,6.7,6.7h11.8v14.12c0,3.7,3.01,6.7,6.7,6.7s6.7-3.01,6.7-6.7v-2.59l-11.86-13.35c-.2-.21-.37-.43-.54-.65-.01-.02-.03-.04-.04-.06-.28-.39-.52-.81-.72-1.24,0,0,0,0,0-.01,0-.02-.01-.03-.02-.04-.06-.15-.13-.29-.18-.45l-.02-.05s-.02-.07-.04-.11c-.04-.12-.08-.25-.12-.37v-.05s-.02-.05-.03-.08c-.06-.22-.1-.44-.14-.67-.02-.14-.04-.28-.06-.42,0-.08-.01-.16-.02-.24-.01-.15-.03-.31-.03-.46,0-.49.06-.97.16-1.43,0-.01,0-.03,0-.04.01-.06.04-.12.05-.17.08-.35.19-.68.32-1,.02-.05.03-.09.05-.14.03-.08.08-.15.12-.23.13-.27.27-.53.44-.78.04-.07.07-.13.11-.2.04-.05.08-.1.12-.15.24-.33.5-.63.79-.91h0Z"/><path class="cls-1" d="m46.96,24.53l18.5,20.83c1.23,1.29,2.89,2.04,4.68,2.08,1.78.04,3.49-.61,4.79-1.84,1.3-1.23,2.04-2.9,2.09-4.68.05-1.79-.61-3.49-1.84-4.79h0s-18.5-20.83-18.5-20.83c-1.23-1.29-2.89-2.04-4.68-2.08-.06,0-.12,0-.18,0-1.72,0-3.35.65-4.61,1.84-2.68,2.54-2.79,6.79-.25,9.47Z"/><path class="cls-1" d="m56.71,36.11l-16.79-18.89s0,.02.01.03c.02.05.04.11.06.16.13.34.24.7.31,1.06,0,0,0,.01,0,.02,0,0,0,0,0,0,.04.2.07.41.09.61v.06s0,0,0,0c.02.24.04.48.04.73v18.08l6.54,7.36c1.23,1.29,2.89,2.04,4.68,2.08,1.79.03,3.49-.61,4.79-1.84,2.68-2.54,2.79-6.79.25-9.47Z"/><path class="cls-1" d="m40.01,19.17v-.07c-.03-.18-.06-.36-.09-.54-.62-3.11-3.39-5.37-6.57-5.37-3.7,0-6.7,3-6.7,6.69,0,.58.08,1.17.24,1.75,0,.02.01.05.02.08.04.15.09.29.14.43l.09.24c.03.08.07.16.1.24.07.15.13.28.19.4l.05.09c.3.54.63,1,1.01,1.39l11.56,13.02v-17.63c0-.22-.01-.46-.04-.7"/></svg>
